<svg xmlns="http://www.w3.org/2000/svg" width="1281" height="325" viewBox="0 0 1281 325" fill="none">
  <rect width="1281" height="325" fill="white"/>
  <rect x="0" y="32" width="256" height="256" rx="8" fill="#0052FF"/>
  <path d="M393.6 244.8c-15.9 0-30.1-3.4-42.6-10.2-12.4-6.9-22.1-16.4-29-28.7-6.9-12.3-10.4-26.4-10.4-42.2 0-15.8 3.5-29.9 10.4-42.2 6.9-12.4 16.6-21.9 29-28.7C363.5 85.9 377.7 82.5 393.6 82.5c15.8 0 29.9 3.4 42.2 10.2 12.3 6.7 22 16.2 29 28.4 7 12.2 10.5 26.3 10.5 42.3 0 16-3.5 30.1-10.5 42.4-7 12.2-16.7 21.8-29 28.6-12.3 6.8-26.4 10.2-42.2 10.2zm0-30.9c13 0 23.4-4.6 31.1-13.9 7.7-9.3 11.6-21.8 11.6-37.5 0-15.6-3.9-28.1-11.6-37.3-7.7-9.3-18.1-13.9-31.1-13.9-13.2 0-23.7 4.6-31.4 13.9-7.7 9.3-11.6 21.7-11.6 37.3 0 15.7 3.8 28.2 11.4 37.5 7.6 9.3 18.1 13.9 31.6 13.9zm132.4 29.4V86h29v28.4h1.8c3.7-9.6 10.2-17.4 19.5-23.4 9.4-6 20.4-9 33.2-9 14.4 0 26.4 3.4 36 10.1 9.7 6.7 16.6 16.1 20.8 28.1 4.2 12 4.5 25.7 0.9 41H649c1.9-11.2 0.5-20.7-4.2-28.4-4.7-7.7-12.8-11.5-24.4-11.5-8.5 0-15.5 2.1-20.8 6.2-5.3 4.1-9.4 9.8-12.4 17-2.9 7.2-4.4 15.4-4.4 24.5v86.3h-27.8zm227.3 3.6c-16.3 0-30.6-3.4-42.9-10.2-12.3-6.8-22-16.3-29-28.5-6.9-12.2-10.4-26.2-10.4-42 0-15.8 3.5-29.8 10.4-42 7-12.2 16.7-21.6 29-28.2 12.3-6.6 26.6-9.9 42.9-9.9 16.5 0 30.8 3.3 42.9 9.9 12.1 6.6 21.6 16.1 28.4 28.2 6.8 12.2 10.2 26.2 10.2 42 0 15.8-3.4 29.8-10.2 42-6.8 12.2-16.3 21.7-28.4 28.5-12.1 6.8-26.4 10.2-42.9 10.2zm0-30.9c12.7 0 22.8-4.6 30.4-13.9 7.6-9.2 11.4-21.7 11.4-37.4 0-15.7-3.8-28.1-11.4-37.2-7.6-9.1-17.7-13.6-30.4-13.6-12.9 0-23.1 4.6-30.7 13.9-7.6 9.3-11.4 21.6-11.4 37 0 15.8 3.8 28.3 11.4 37.5 7.6 9.3 17.9 13.9 30.7 13.9zm117.4 31.5v-159h29v28.4h1.8c3.7-9.2 10.4-16.8 20-22.7 9.7-5.9 21.1-8.9 34.3-8.9 14.1 0 26.2 3.6 36.4 10.9 10.2 7.3 17.7 17.4 22.4 30.4 4.7 13 5.4 28.1 2.1 45.4h-30.8c1.6-12.4 0.7-22.9-2.9-31.4-3.6-8.5-9.2-14.8-16.9-18.9-7.7-4.1-16.5-6.1-26.5-6.1-8.8 0-16.4 2-22.8 6-6.4 4-11.4 9.6-14.9 16.7-3.5 7.1-5.3 15.2-5.3 24.3v85.9h-28.9z" fill="#010101"/>
</svg>
